<?xml version="1.0" encoding="UTF-8"?>
<svg id="Layer_1" data-name="Layer 1" xmlns="http://www.w3.org/2000/svg" viewBox="0 0 612.19 204.6">
  <defs>
    <style>
      .cls-1 {
        fill: #5bb12f;
      }

      .cls-2 {
        fill: #532464;
      }

      .cls-3 {
        fill: #888989;
      }
    </style>
  </defs>
  <circle class="cls-2" cx="107.75" cy="102.3" r="3.52"/>
  <circle class="cls-2" cx="107.75" cy="96.15" r=".94"/>
  <circle class="cls-2" cx="107.75" cy="92.22" r="1.31"/>
  <circle class="cls-2" cx="107.75" cy="102.3" r="3.52"/>
  <circle class="cls-2" cx="102.71" cy="93.57" r="1.31"/>
  <circle class="cls-2" cx="107.75" cy="102.3" r="3.52"/>
  <circle class="cls-2" cx="99.02" cy="97.26" r="1.31"/>
  <circle class="cls-2" cx="107.75" cy="102.3" r="3.52"/>
  <circle class="cls-2" cx="97.66" cy="102.3" r="1.31"/>
  <circle class="cls-2" cx="107.75" cy="102.3" r="3.52"/>
  <circle class="cls-2" cx="99.02" cy="107.34" r="1.31"/>
  <circle class="cls-2" cx="107.75" cy="102.3" r="3.52"/>
  <circle class="cls-2" cx="102.71" cy="111.03" r="1.31"/>
  <circle class="cls-2" cx="107.75" cy="102.3" r="3.52"/>
  <circle class="cls-2" cx="107.75" cy="112.38" r="1.31"/>
  <circle class="cls-2" cx="107.75" cy="102.3" r="3.52"/>
  <circle class="cls-2" cx="112.79" cy="111.03" r="1.31"/>
  <circle class="cls-2" cx="107.75" cy="102.3" r="3.52"/>
  <circle class="cls-2" cx="116.48" cy="107.34" r="1.31"/>
  <circle class="cls-2" cx="107.75" cy="102.3" r="3.52"/>
  <circle class="cls-2" cx="117.83" cy="102.3" r="1.31"/>
  <circle class="cls-2" cx="107.75" cy="102.3" r="3.52"/>
  <circle class="cls-2" cx="116.48" cy="97.26" r="1.31"/>
  <circle class="cls-2" cx="107.75" cy="102.3" r="3.52"/>
  <circle class="cls-2" cx="112.79" cy="93.57" r="1.31"/>
  <circle class="cls-2" cx="104.67" cy="96.98" r=".94"/>
  <circle class="cls-2" cx="102.42" cy="99.23" r=".94"/>
  <circle class="cls-2" cx="101.6" cy="102.3" r=".94"/>
  <circle class="cls-2" cx="102.42" cy="105.38" r=".94"/>
  <circle class="cls-2" cx="104.67" cy="107.63" r=".94"/>
  <circle class="cls-2" cx="107.75" cy="108.45" r=".94"/>
  <circle class="cls-2" cx="110.82" cy="107.63" r=".94"/>
  <circle class="cls-2" cx="113.07" cy="105.38" r=".94"/>
  <circle class="cls-2" cx="113.9" cy="102.3" r=".94"/>
  <circle class="cls-2" cx="113.07" cy="99.23" r=".94"/>
  <circle class="cls-2" cx="110.82" cy="96.98" r=".94"/>
  <path class="cls-1" d="M109.74,73.82c-.4-1.36-1.11-3.76-2-6.85h0c-.89,3.1-1.59,5.49-2,6.85-1.53,5.15-2.61,8.61-1.67,11.52.22.68.69,2.06,2,2.75.64.34,1.28.4,1.67.4h0c.4,0,1.03-.06,1.67-.4,1.3-.69,1.78-2.07,2-2.75.94-2.9-.14-6.37-1.67-11.52Z"/>
  <path class="cls-1" d="M95.24,76.64c-1.03-.97-2.84-2.7-5.15-4.94h0c.78,3.12,1.37,5.55,1.7,6.93,1.25,5.22,2.04,8.77,4.31,10.81.53.48,1.63,1.44,3.1,1.38.73-.03,1.3-.29,1.65-.49h0c.34-.2.86-.56,1.25-1.18.78-1.25.5-2.68.35-3.38-.64-2.99-3.31-5.44-7.21-9.14Z"/>
  <path class="cls-1" d="M84.08,86.33c-1.38-.33-3.81-.92-6.93-1.7h0c2.24,2.32,3.96,4.13,4.94,5.15,3.7,3.9,6.15,6.57,9.14,7.21.7.15,2.13.43,3.38-.35.62-.39.98-.91,1.18-1.25h0c.2-.34.46-.92.49-1.65.05-1.47-.91-2.57-1.38-3.1-2.04-2.27-5.59-3.06-10.81-4.31Z"/>
  <path class="cls-1" d="M79.27,100.31c-1.36.4-3.76,1.11-6.85,2h0c3.1.89,5.49,1.59,6.85,2,5.15,1.53,8.61,2.61,11.52,1.67.68-.22,2.06-.69,2.75-2,.34-.64.4-1.28.4-1.67h0c0-.4-.06-1.03-.4-1.67-.69-1.3-2.07-1.78-2.75-2-2.9-.94-6.37.14-11.52,1.67Z"/>
  <path class="cls-1" d="M82.08,114.81c-.97,1.03-2.7,2.84-4.94,5.15h0c3.12-.78,5.55-1.37,6.93-1.7,5.22-1.25,8.77-2.04,10.81-4.31.48-.53,1.44-1.63,1.38-3.1-.03-.73-.29-1.3-.49-1.65h0c-.2-.34-.56-.86-1.18-1.25-1.25-.78-2.68-.5-3.38-.35-2.99.64-5.44,3.31-9.14,7.21Z"/>
  <path class="cls-1" d="M91.78,125.97c-.33,1.38-.92,3.81-1.7,6.93h0c2.32-2.24,4.13-3.96,5.15-4.94,3.9-3.7,6.57-6.15,7.21-9.14.15-.7.43-2.13-.35-3.38-.39-.62-.91-.98-1.25-1.18h0c-.34-.2-.92-.46-1.65-.49-1.47-.05-2.57.91-3.1,1.38-2.27,2.04-3.06,5.59-4.31,10.81Z"/>
  <path class="cls-1" d="M105.75,130.78c.4,1.36,1.11,3.76,2,6.85h0c.89-3.1,1.59-5.49,2-6.85,1.53-5.15,2.61-8.61,1.67-11.52-.22-.68-.69-2.06-2-2.75-.64-.34-1.28-.4-1.67-.4h0c-.4,0-1.03.06-1.67.4-1.3.69-1.78,2.07-2,2.75-.94,2.9.14,6.37,1.67,11.52Z"/>
  <path class="cls-1" d="M120.26,127.96c1.03.97,2.84,2.7,5.15,4.94h0c-.78-3.12-1.37-5.55-1.7-6.93-1.25-5.22-2.04-8.77-4.31-10.81-.53-.48-1.63-1.44-3.1-1.38-.73.03-1.3.29-1.65.49h0c-.34.2-.86.56-1.25,1.18-.78,1.25-.5,2.68-.35,3.38.64,2.99,3.31,5.44,7.21,9.14Z"/>
  <path class="cls-1" d="M131.42,118.27c1.38.33,3.81.92,6.93,1.7h0c-2.24-2.32-3.96-4.13-4.94-5.15-3.7-3.9-6.15-6.57-9.14-7.21-.7-.15-2.13-.43-3.38.35-.62.39-.98.91-1.18,1.25h0c-.2.34-.46.92-.49,1.65-.05,1.47.91,2.57,1.38,3.1,2.04,2.27,5.59,3.06,10.81,4.31Z"/>
  <path class="cls-1" d="M136.23,104.3c1.36-.4,3.76-1.11,6.85-2h0c-3.1-.89-5.49-1.59-6.85-2-5.15-1.53-8.61-2.61-11.52-1.67-.68.22-2.06.69-2.75,2-.34.64-.4,1.28-.4,1.67h0c0,.4.06,1.03.4,1.67.69,1.3,2.07,1.78,2.75,2,2.9.94,6.37-.14,11.52-1.67Z"/>
  <path class="cls-1" d="M133.41,89.79c.97-1.03,2.7-2.84,4.94-5.15h0c-3.12.78-5.55,1.37-6.93,1.7-5.22,1.25-8.77,2.04-10.81,4.31-.48.53-1.44,1.63-1.38,3.1.03.73.29,1.3.49,1.65h0c.2.34.56.86,1.18,1.25,1.25.78,2.68.5,3.38.35,2.99-.64,5.44-3.31,9.14-7.21Z"/>
  <path class="cls-1" d="M123.72,78.63c.33-1.38.92-3.81,1.7-6.93h0c-2.32,2.24-4.13,3.96-5.15,4.94-3.9,3.7-6.57,6.15-7.21,9.14-.15.7-.43,2.13.35,3.38.39.62.91.98,1.25,1.18h0c.34.2.92.46,1.65.49,1.47.05,2.57-.91,3.1-1.38,2.27-2.04,3.06-5.59,4.31-10.81Z"/>
  <path class="cls-2" d="M111.31,30.7c-3.04-3.85-3.53-15.68-3.53-15.68,0,0-.01.3-.03.82-.02-.52-.03-.82-.03-.82,0,0-.49,11.82-3.53,15.68-1.59,2.02-12.25,17.29-4.52,27.33,0,0,7.35-11.41,8.05-18.67.01-.12.02-.24.03-.36.01.12.02.25.03.36.69,7.26,8.05,18.67,8.05,18.67,7.74-10.04-2.92-25.31-4.52-27.33Z"/>
  <path class="cls-2" d="M75.03,38.51c-4.56-1.82-10.89-11.81-10.89-11.81,0,0,.14.26.38.73-.28-.44-.44-.7-.44-.7,0,0,5.49,10.49,4.78,15.34-.37,2.55-1.97,21.1,9.75,25.93,0,0,.66-13.56-2.36-20.19-.05-.11-.1-.22-.15-.33.07.1.14.2.21.3,4.23,5.94,16.3,12.14,16.3,12.14,1.68-12.56-15.19-20.46-17.58-21.41Z"/>
  <path class="cls-2" d="M47.52,63.42c-4.85.7-15.34-4.78-15.34-4.78,0,0,.25.16.7.44-.46-.25-.73-.38-.73-.38,0,0,9.99,6.34,11.81,10.89.95,2.39,8.85,19.26,21.41,17.58,0,0-6.2-12.07-12.14-16.3-.09-.07-.2-.14-.3-.21.11.05.22.11.33.15,6.63,3.03,20.19,2.36,20.19,2.36-4.83-11.72-23.38-10.12-25.93-9.75Z"/>
  <path class="cls-2" d="M36.15,98.74c-3.85,3.04-15.68,3.53-15.68,3.53,0,0,.3.01.82.03-.52.02-.82.03-.82.03,0,0,11.82.49,15.68,3.53,2.02,1.59,17.29,12.25,27.33,4.52,0,0-11.41-7.35-18.67-8.05-.12-.01-.24-.02-.36-.03.12-.01.25-.02.36-.03,7.26-.69,18.67-8.05,18.67-8.05-10.04-7.74-25.31,2.92-27.33,4.52Z"/>
  <path class="cls-2" d="M43.96,135.02c-1.82,4.56-11.81,10.89-11.81,10.89,0,0,.26-.14.73-.38-.44.28-.7.44-.7.44,0,0,10.49-5.49,15.34-4.78,2.55.37,21.1,1.97,25.93-9.75,0,0-13.56-.66-20.19,2.36-.11.05-.22.1-.33.15.1-.07.2-.14.3-.21,5.94-4.23,12.14-16.3,12.14-16.3-12.56-1.68-20.46,15.19-21.41,17.58Z"/>
  <path class="cls-2" d="M68.87,162.53c.7,4.85-4.78,15.34-4.78,15.34,0,0,.16-.25.44-.7-.25.46-.38.73-.38.73,0,0,6.34-9.99,10.89-11.81,2.39-.95,19.26-8.85,17.58-21.41,0,0-12.07,6.2-16.3,12.14-.07.09-.14.2-.21.3.05-.11.11-.22.15-.33,3.03-6.63,2.36-20.19,2.36-20.19-11.72,4.83-10.12,23.38-9.75,25.93Z"/>
  <path class="cls-2" d="M104.19,173.9c3.04,3.85,3.53,15.68,3.53,15.68,0,0,.01-.3.03-.82.02.52.03.82.03.82,0,0,.49-11.82,3.53-15.68,1.59-2.02,12.25-17.29,4.52-27.33,0,0-7.35,11.41-8.05,18.67-.01.12-.02.24-.03.36-.01-.12-.02-.25-.03-.36-.69-7.26-8.05-18.67-8.05-18.67-7.74,10.04,2.92,25.31,4.52,27.33Z"/>
  <path class="cls-2" d="M140.47,166.09c4.56,1.82,10.89,11.81,10.89,11.81,0,0-.14-.26-.38-.73.28.44.44.7.44.7,0,0-5.49-10.49-4.78-15.34.37-2.55,1.97-21.1-9.75-25.93,0,0-.66,13.56,2.36,20.19.05.11.1.22.15.33-.07-.1-.14-.2-.21-.3-4.23-5.94-16.3-12.14-16.3-12.14-1.68,12.56,15.19,20.46,17.58,21.41Z"/>
  <path class="cls-2" d="M167.98,141.18c4.85-.7,15.34,4.78,15.34,4.78,0,0-.25-.16-.7-.44.46.25.73.38.73.38,0,0-9.99-6.34-11.81-10.89-.95-2.39-8.85-19.26-21.41-17.58,0,0,6.2,12.07,12.14,16.3.09.07.2.14.3.21-.11-.05-.22-.11-.33-.15-6.63-3.03-20.19-2.36-20.19-2.36,4.83,11.72,23.38,10.12,25.93,9.75Z"/>
  <path class="cls-2" d="M179.35,105.86c3.85-3.04,15.68-3.53,15.68-3.53,0,0-.3-.01-.82-.03.52-.02.82-.03.82-.03,0,0-11.82-.49-15.68-3.53-2.02-1.59-17.29-12.25-27.33-4.52,0,0,11.41,7.35,18.67,8.05.12.01.24.02.36.03-.12.01-.25.02-.36.03-7.26.69-18.67,8.05-18.67,8.05,10.04,7.74,25.31-2.92,27.33-4.52Z"/>
  <path class="cls-2" d="M171.54,69.58c1.82-4.56,11.81-10.89,11.81-10.89,0,0-.26.14-.73.38.44-.28.7-.44.7-.44,0,0-10.49,5.49-15.34,4.78-2.55-.37-21.1-1.97-25.93,9.75,0,0,13.56.66,20.19-2.36.11-.05.22-.1.33-.15-.1.07-.2.14-.3.21-5.94,4.23-12.14,16.3-12.14,16.3,12.56,1.68,20.46-15.19,21.41-17.58Z"/>
  <path class="cls-2" d="M146.63,42.07c-.7-4.85,4.78-15.34,4.78-15.34,0,0-.16.25-.44.7.25-.46.38-.73.38-.73,0,0-6.34,9.99-10.89,11.81-2.39.95-19.26,8.85-17.58,21.41,0,0,12.07-6.2,16.3-12.14.07-.09.14-.2.21-.3-.05.11-.11.22-.15.33-3.03,6.63-2.36,20.19-2.36,20.19,11.72-4.83,10.12-23.38,9.75-25.93Z"/>
  <circle class="cls-2" cx="87.52" cy="25.5" r="1.68"/>
  <circle class="cls-2" cx="51.82" cy="45.9" r="1.68"/>
  <circle class="cls-2" cx="31.12" cy="81.42" r="1.68"/>
  <circle class="cls-2" cx="30.94" cy="122.53" r="1.68"/>
  <circle class="cls-2" cx="51.35" cy="158.23" r="1.68"/>
  <circle class="cls-2" cx="86.87" cy="178.93" r="1.68"/>
  <circle class="cls-2" cx="127.98" cy="179.11" r="1.68"/>
  <circle class="cls-2" cx="163.67" cy="158.7" r="1.68"/>
  <circle class="cls-2" cx="184.38" cy="123.18" r="1.68"/>
  <circle class="cls-2" cx="184.55" cy="82.07" r="1.68"/>
  <circle class="cls-2" cx="164.15" cy="46.38" r="1.68"/>
  <circle class="cls-2" cx="128.63" cy="25.67" r="1.68"/>
  <g>
    <path class="cls-1" d="M228.69,102.14v-48.77h12.4l9.82,29.05h.21l-.35-5.09-.21-23.97h10.66v48.77h-11.7l-10.45-29.12h-.28l.35,5.16.28,23.97h-10.73Z"/>
    <path class="cls-1" d="M286.31,102.14l-1.11-7.59h-8.78l-1.11,7.59h-11.57l9.48-48.77h15.26l9.41,48.77h-11.57ZM277.74,85.63h6.2l-2.93-20.07h-.35l-2.93,20.07Z"/>
    <path class="cls-1" d="M303.3,102.14v-39.85h-8.01v-8.92h27.38v8.92h-8.01v39.85h-11.36Z"/>
    <path class="cls-1" d="M325.25,87.23v-33.86h11.36v35.39c0,3.14,1.25,4.81,3.48,4.81s3.48-1.67,3.48-4.81v-35.39h11.36v33.86c0,10.17-5.37,15.4-14.84,15.4s-14.84-5.23-14.84-15.4Z"/>
    <path class="cls-1" d="M388.09,98.93c0,1.32.63,2.16,1.74,2.23v.98h-10.87c-1.39-.56-2.16-2.16-2.16-4.53v-11.91c0-2.3-.63-4.32-3.2-4.32h-3.69v20.76h-11.29v-48.77h17.77c7.32,0,12.26,3.69,12.26,12.89v2.3c0,4.74-1.88,7.87-4.67,9.2v.28c2.44,1.32,4.11,3.55,4.11,7.11v13.79ZM369.9,72.81h4.11c2.02,0,3.27-.91,3.27-3.76v-3.27c0-2.86-1.18-3.83-3.27-3.83h-4.11v10.87Z"/>
    <path class="cls-1" d="M392.13,102.14v-48.77h26.61v8.92h-15.33v10.03h13.03v8.36h-13.03v12.54h15.68v8.92h-26.96Z"/>
  </g>
  <g>
    <path class="cls-2" d="M454.9,53.37h11.36v48.77h-11.36v-20.2h-7.25v20.2h-11.29v-48.77h11.29v19.65h7.25v-19.65Z"/>
    <path class="cls-2" d="M470.57,102.14v-48.77h26.61v8.92h-15.33v10.03h13.03v8.36h-13.03v12.54h15.68v8.92h-26.96Z"/>
    <path class="cls-2" d="M521.78,102.14l-1.11-7.59h-8.78l-1.11,7.59h-11.57l9.47-48.77h15.26l9.41,48.77h-11.57ZM513.21,85.63h6.2l-2.93-20.07h-.35l-2.93,20.07Z"/>
    <path class="cls-2" d="M561.14,102.14h-25.29v-48.77h11.29v39.85h14v8.92Z"/>
    <path class="cls-2" d="M562.11,89.67v-4.46l11.29-.07v4.6c.07,2.51,1.39,3.83,3.69,3.83,2.02,0,3.34-1.18,3.34-2.93v-2.72c0-3.34-1.6-4.53-7.94-7.39-7.04-3.21-9.96-6.9-9.96-13.52v-2.37c0-6.69,4.53-11.77,14.35-11.77,8.22,0,14.7,3.55,14.84,12.47v4.04l-11.29.07v-3.97c0-2.16-1.39-3.55-3.55-3.55-2.02,0-3.27,1.18-3.27,2.93v2.44c0,2.65,1.04,3.69,6.69,6.34,7.46,3.48,11.36,6.69,11.36,14.21v2.86c0,7.66-6.06,11.91-14.7,11.91-11.43,0-14.77-7.59-14.84-12.96Z"/>
  </g>
  <g>
    <path class="cls-3" d="M269.78,151.07l-4.94-29.28h6.86l2.38,20.33.13,1.67h.08l.25-2.43,2.22-19.57h7.32l2.17,19.57.25,2.43h.13l.08-1.67,2.38-20.33h6.86l-4.89,29.28h-8.32l-2.17-17.86-.13-1.67h-.08l-.13,1.67-2.17,17.86h-8.28Z"/>
    <path class="cls-3" d="M297.51,151.07v-29.28h15.98v5.35h-9.2v6.02h7.82v5.02h-7.82v7.53h9.41v5.35h-16.19Z"/>
    <path class="cls-3" d="M330.97,151.07h-15.18v-29.28h6.78v23.92h8.41v5.35Z"/>
    <path class="cls-3" d="M347.57,151.07h-15.18v-29.28h6.78v23.92h8.41v5.35Z"/>
    <path class="cls-3" d="M348.99,151.07v-29.28h7.44l5.9,17.44h.12l-.21-3.05-.12-14.39h6.4v29.28h-7.03l-6.27-17.48h-.17l.21,3.09.17,14.39h-6.44Z"/>
    <path class="cls-3" d="M371.11,151.07v-29.28h15.98v5.35h-9.2v6.02h7.82v5.02h-7.82v7.53h9.41v5.35h-16.19Z"/>
    <path class="cls-3" d="M388.72,143.59v-2.68l6.78-.04v2.76c.04,1.5.84,2.3,2.22,2.3,1.21,0,2.01-.71,2.01-1.76v-1.63c0-2.01-.96-2.72-4.77-4.43-4.22-1.92-5.98-4.14-5.98-8.11v-1.42c0-4.01,2.72-7.07,8.62-7.07,4.94,0,8.83,2.13,8.91,7.49v2.43l-6.78.04v-2.38c0-1.3-.84-2.13-2.13-2.13-1.21,0-1.97.71-1.97,1.76v1.46c0,1.59.63,2.22,4.02,3.81,4.47,2.09,6.82,4.02,6.82,8.53v1.71c0,4.6-3.64,7.15-8.83,7.15-6.86,0-8.87-4.56-8.91-7.78Z"/>
    <path class="cls-3" d="M407.79,143.59v-2.68l6.78-.04v2.76c.04,1.5.84,2.3,2.22,2.3,1.21,0,2.01-.71,2.01-1.76v-1.63c0-2.01-.96-2.72-4.77-4.43-4.22-1.92-5.98-4.14-5.98-8.11v-1.42c0-4.01,2.72-7.07,8.62-7.07,4.94,0,8.83,2.13,8.91,7.49v2.43l-6.78.04v-2.38c0-1.3-.84-2.13-2.13-2.13-1.21,0-1.97.71-1.97,1.76v1.46c0,1.59.63,2.22,4.02,3.81,4.47,2.09,6.82,4.02,6.82,8.53v1.71c0,4.6-3.64,7.15-8.83,7.15-6.86,0-8.87-4.56-8.91-7.78Z"/>
    <path class="cls-3" d="M435.39,142.29v-11.84c0-5.94,3.51-8.95,9.12-8.95,6.27,0,9.16,3.68,9.16,8.74v4.06l-6.82.04v-4.18c0-2.05-.79-3.22-2.34-3.22-1.46,0-2.3,1.17-2.3,3.22v12.59c0,2.05.84,3.18,2.3,3.18,1.55,0,2.3-1.13,2.34-3.18v-4.31l6.82.04v4.1c0,4.89-2.89,8.78-9.12,8.78-5.65,0-9.16-3.01-9.16-9.08Z"/>
    <path class="cls-3" d="M455.84,151.07v-29.28h15.98v5.35h-9.2v6.02h7.82v5.02h-7.82v7.53h9.41v5.35h-16.19Z"/>
    <path class="cls-3" d="M474.11,151.07v-29.28h7.44l5.9,17.44h.12l-.21-3.05-.12-14.39h6.4v29.28h-7.03l-6.27-17.48h-.17l.21,3.09.17,14.39h-6.44Z"/>
    <path class="cls-3" d="M500.29,151.07v-23.92h-4.81v-5.35h16.44v5.35h-4.81v23.92h-6.82Z"/>
    <path class="cls-3" d="M531.45,149.15c0,.79.38,1.3,1.05,1.34v.59h-6.53c-.84-.33-1.3-1.3-1.3-2.72v-7.15c0-1.38-.38-2.59-1.92-2.59h-2.22v12.46h-6.78v-29.28h10.67c4.39,0,7.36,2.22,7.36,7.74v1.38c0,2.84-1.13,4.73-2.8,5.52v.17c1.46.79,2.47,2.13,2.47,4.27v8.28ZM520.53,133.46h2.47c1.21,0,1.97-.54,1.97-2.26v-1.97c0-1.71-.71-2.3-1.97-2.3h-2.47v6.52Z"/>
    <path class="cls-3" d="M533.87,151.07v-29.28h15.98v5.35h-9.2v6.02h7.82v5.02h-7.82v7.53h9.41v5.35h-16.19Z"/>
  </g>
</svg>